<svg width="20" height="19" viewBox="0 0 20 19" fill="none" xmlns="http://www.w3.org/2000/svg">
<path d="M6.935 19L6.555 15.96C6.34917 15.8808 6.15521 15.7858 5.97312 15.675C5.79104 15.5642 5.61292 15.4454 5.43875 15.3187L2.6125 16.5062L0 11.9937L2.44625 10.1413C2.43042 10.0304 2.4225 9.92354 2.4225 9.82062C2.4225 9.71771 2.4225 9.61083 2.4225 9.5C2.4225 9.38917 2.4225 9.28229 2.4225 9.17938C2.4225 9.07646 2.43042 8.96958 2.44625 8.85875L0 7.00625L2.6125 2.49375L5.43875 3.68125C5.61292 3.55458 5.795 3.43583 5.985 3.325C6.175 3.21417 6.365 3.11917 6.555 3.04L6.935 0H12.16L12.54 3.04C12.7458 3.11917 12.9398 3.21417 13.1219 3.325C13.304 3.43583 13.4821 3.55458 13.6562 3.68125L16.4825 2.49375L19.095 7.00625L16.6487 8.85875C16.6646 8.96958 16.6725 9.07646 16.6725 9.17938C16.6725 9.28229 16.6725 9.38917 16.6725 9.5C16.6725 9.61083 16.6725 9.71771 16.6725 9.82062C16.6725 9.92354 16.6567 10.0304 16.625 10.1413L19.0713 11.9937L16.4588 16.5062L13.6562 15.3187C13.4821 15.4454 13.3 15.5642 13.11 15.675C12.92 15.7858 12.73 15.8808 12.54 15.96L12.16 19H6.935ZM8.5975 17.1H10.4737L10.8062 14.5825C11.2971 14.4558 11.7523 14.2698 12.1719 14.0244C12.5915 13.779 12.9754 13.4821 13.3237 13.1337L15.675 14.1075L16.6013 12.4925L14.5587 10.9487C14.6379 10.7271 14.6933 10.4935 14.725 10.2481C14.7567 10.0027 14.7725 9.75333 14.7725 9.5C14.7725 9.24667 14.7567 8.99729 14.725 8.75187C14.6933 8.50646 14.6379 8.27292 14.5587 8.05125L16.6013 6.5075L15.675 4.8925L13.3237 5.89C12.9754 5.52583 12.5915 5.22104 12.1719 4.97563C11.7523 4.73021 11.2971 4.54417 10.8062 4.4175L10.4975 1.9H8.62125L8.28875 4.4175C7.79792 4.54417 7.34271 4.73021 6.92312 4.97563C6.50354 5.22104 6.11958 5.51792 5.77125 5.86625L3.42 4.8925L2.49375 6.5075L4.53625 8.0275C4.45708 8.265 4.40167 8.5025 4.37 8.74C4.33833 8.9775 4.3225 9.23083 4.3225 9.5C4.3225 9.75333 4.33833 9.99875 4.37 10.2362C4.40167 10.4737 4.45708 10.7112 4.53625 10.9487L2.49375 12.4925L3.42 14.1075L5.77125 13.11C6.11958 13.4742 6.50354 13.779 6.92312 14.0244C7.34271 14.2698 7.79792 14.4558 8.28875 14.5825L8.5975 17.1ZM9.595 12.825C10.5133 12.825 11.2971 12.5004 11.9462 11.8513C12.5954 11.2021 12.92 10.4183 12.92 9.5C12.92 8.58167 12.5954 7.79792 11.9462 7.14875C11.2971 6.49958 10.5133 6.175 9.595 6.175C8.66083 6.175 7.87313 6.49958 7.23188 7.14875C6.59062 7.79792 6.27 8.58167 6.27 9.5C6.27 10.4183 6.59062 11.2021 7.23188 11.8513C7.87313 12.5004 8.66083 12.825 9.595 12.825Z" fill="#475569"/>
</svg>
